<svg xmlns="http://www.w3.org/2000/svg"  viewBox="0 0 100 100" width="100px" height="100px"><path fill="#78a0cf" d="M13 27A2 2 0 1 0 13 31A2 2 0 1 0 13 27Z"/><path fill="#f1bc19" d="M77 12A1 1 0 1 0 77 14A1 1 0 1 0 77 12Z"/><path fill="#cee1f4" d="M50 13A37 37 0 1 0 50 87A37 37 0 1 0 50 13Z"/><path fill="#f1bc19" d="M83 11A4 4 0 1 0 83 19A4 4 0 1 0 83 11Z"/><path fill="#78a0cf" d="M87 22A2 2 0 1 0 87 26A2 2 0 1 0 87 22Z"/><path fill="#fbcd59" d="M81 74A2 2 0 1 0 81 78 2 2 0 1 0 81 74zM15 59A4 4 0 1 0 15 67 4 4 0 1 0 15 59z"/><path fill="#78a0cf" d="M25 85A2 2 0 1 0 25 89A2 2 0 1 0 25 85Z"/><path fill="#fff" d="M18.5 51A2.5 2.5 0 1 0 18.5 56A2.5 2.5 0 1 0 18.5 51Z"/><path fill="#f1bc19" d="M21 66A1 1 0 1 0 21 68A1 1 0 1 0 21 66Z"/><path fill="#fff" d="M80 33A1 1 0 1 0 80 35A1 1 0 1 0 80 33Z"/><path fill="#ef9922" d="M35,72.3c-4.025,0-7.3-3.274-7.3-7.3V35c0-4.025,3.274-7.3,7.3-7.3h30c4.025,0,7.3,3.274,7.3,7.3 v30c0,4.025-3.274,7.3-7.3,7.3H35z"/><path fill="#472b29" d="M65,28.4c3.639,0,6.6,2.961,6.6,6.6v30c0,3.639-2.961,6.6-6.6,6.6H35c-3.639,0-6.6-2.961-6.6-6.6 V35c0-3.639,2.961-6.6,6.6-6.6H65 M65,27H35c-4.4,0-8,3.6-8,8v30c0,4.4,3.6,8,8,8h30c4.4,0,8-3.6,8-8V35C73,30.6,69.4,27,65,27 L65,27z"/><path fill="#472b29" d="M68.5,47.375c-0.276,0-0.5-0.224-0.5-0.5V43c0-0.276,0.224-0.5,0.5-0.5S69,42.724,69,43v3.875 C69,47.151,68.776,47.375,68.5,47.375z"/><g><path fill="#472b29" d="M68.5,40.5c-0.276,0-0.5-0.224-0.5-0.5v-2c0-0.276,0.224-0.5,0.5-0.5S69,37.724,69,38v2 C69,40.276,68.776,40.5,68.5,40.5z"/></g><g><path fill="#472b29" d="M64,69H36c-2.757,0-5-2.243-5-5V36c0-2.757,2.243-5,5-5h25.375c0.276,0,0.5,0.224,0.5,0.5 s-0.224,0.5-0.5,0.5H36c-2.206,0-4,1.794-4,4v28c0,2.206,1.794,4,4,4h28c2.206,0,4-1.794,4-4V49.625c0-0.276,0.224-0.5,0.5-0.5 s0.5,0.224,0.5,0.5V64C69,66.757,66.757,69,64,69z"/></g><g><path fill="#fdfcef" d="M34.791,47.61c-0.003,3.157,1.946,6.144,5.297,8.117l0,0c0,1.705-0.497,3.593-1.118,4.795 c-0.217,0.42,0.14,0.923,0.61,0.87c3.089-0.342,6.015-1.867,7.571-3.392h1.766c7.802,0,14.126-4.652,14.126-10.39 s-6.324-10.39-14.126-10.39S34.791,41.872,34.791,47.61"/><path fill="#472b29" d="M39.515,61.896c-0.362,0-0.704-0.18-0.914-0.485c-0.23-0.335-0.259-0.765-0.075-1.119 c0.5-0.968,1.004-2.64,1.057-4.285c-3.371-2.074-5.295-5.121-5.292-8.396c0-6.005,6.561-10.891,14.626-10.891 s14.626,4.886,14.626,10.891S56.982,58.5,48.917,58.5h-1.566c-1.567,1.456-4.503,3.034-7.716,3.39 C39.595,61.894,39.555,61.896,39.515,61.896z M48.917,37.72c-7.513,0-13.626,4.437-13.626,9.891l0,0 c-0.003,2.993,1.838,5.794,5.05,7.686l0.247,0.145v0.286c0,1.673-0.46,3.645-1.173,5.024c0.022,0.111,0.058,0.143,0.111,0.145 c3.081-0.341,5.874-1.879,7.275-3.253l0.146-0.143h1.97c7.513,0,13.626-4.437,13.626-9.89C62.543,42.156,56.43,37.72,48.917,37.72z"/></g><g><path fill="#ee3e54" d="M56.5 50A5.5 5.5 0 1 0 56.5 61A5.5 5.5 0 1 0 56.5 50Z"/><path fill="#472b29" d="M56.5,61.5c-3.309,0-6-2.691-6-6s2.691-6,6-6s6,2.691,6,6S59.809,61.5,56.5,61.5z M56.5,50.5 c-2.757,0-5,2.243-5,5s2.243,5,5,5s5-2.243,5-5S59.257,50.5,56.5,50.5z"/></g><g><path fill="#fdfcef" d="M59.141 56.085c-.25-.248-.549-.374-.89-.374-.346 0-.647.126-.896.375-.25.249-.376.551-.376.896 0 .342.123.641.37.89.247.249.55.375.902.375.349 0 .649-.127.895-.377.247-.25.37-.549.37-.888C59.515 56.637 59.39 56.337 59.141 56.085zM58.709 56.983c0 .125-.045.23-.136.322-.184.186-.474.179-.651 0-.091-.093-.136-.198-.136-.322 0-.128.046-.235.138-.328.09-.091.198-.137.327-.137.123 0 .23.046.321.137C58.664 56.747 58.709 56.855 58.709 56.983zM56.13 54.097c0-.349-.126-.649-.376-.897-.25-.247-.55-.371-.895-.371-.344 0-.643.125-.891.371-.249.248-.375.55-.375.897 0 .342.123.642.37.891.247.251.549.377.896.377.351 0 .654-.126.901-.377C56.007 54.738 56.13 54.438 56.13 54.097zM55.323 54.097c0 .127-.045.233-.135.326-.182.181-.466.185-.653 0-.091-.093-.136-.199-.136-.326 0-.128.045-.235.135-.327.091-.09.198-.135.325-.135.128 0 .235.045.328.135C55.279 53.862 55.323 53.968 55.323 54.097z"/><path fill="#fdfcef" d="M58.634,52.883c-0.021-0.034-0.058-0.056-0.098-0.056h-2.018c-0.064,0-0.114,0.05-0.114,0.114 v0.579c0,0.064,0.05,0.114,0.114,0.114h0.958l-2.501,4.445c-0.021,0.034-0.021,0.078,0.001,0.114 c0.021,0.034,0.058,0.056,0.098,0.056h0.579c0.041,0,0.079-0.023,0.101-0.058l2.882-5.193 C58.655,52.962,58.655,52.918,58.634,52.883z"/></g><g><path fill="#472b29" d="M49.5,43.75h-9c-0.138,0-0.25-0.112-0.25-0.25s0.112-0.25,0.25-0.25h9c0.138,0,0.25,0.112,0.25,0.25 S49.638,43.75,49.5,43.75z"/></g><g><path fill="#472b29" d="M44.5,46.75h-6c-0.138,0-0.25-0.112-0.25-0.25s0.112-0.25,0.25-0.25h6c0.138,0,0.25,0.112,0.25,0.25 S44.638,46.75,44.5,46.75z"/></g><g><path fill="#472b29" d="M57.5,46.75h-11c-0.138,0-0.25-0.112-0.25-0.25s0.112-0.25,0.25-0.25h11 c0.138,0,0.25,0.112,0.25,0.25S57.638,46.75,57.5,46.75z"/></g><g><path fill="#472b29" d="M55.5,43.75h-4c-0.138,0-0.25-0.112-0.25-0.25s0.112-0.25,0.25-0.25h4c0.138,0,0.25,0.112,0.25,0.25 S55.638,43.75,55.5,43.75z"/></g><g><path fill="#472b29" d="M48.5,52.75h-7c-0.138,0-0.25-0.112-0.25-0.25s0.112-0.25,0.25-0.25h7c0.138,0,0.25,0.112,0.25,0.25 S48.638,52.75,48.5,52.75z"/></g><g><path fill="#472b29" d="M50.5,49.75h-11c-0.138,0-0.25-0.112-0.25-0.25s0.112-0.25,0.25-0.25h11 c0.138,0,0.25,0.112,0.25,0.25S50.638,49.75,50.5,49.75z"/></g></svg>