<svg xmlns="http://www.w3.org/2000/svg"  viewBox="0 0 100 100" width="100px" height="100px"><path fill="#f1bc19" d="M77 12A1 1 0 1 0 77 14A1 1 0 1 0 77 12Z"/><path fill="#e6edb7" d="M50 13A37 37 0 1 0 50 87A37 37 0 1 0 50 13Z"/><path fill="#f1bc19" d="M83 11A4 4 0 1 0 83 19A4 4 0 1 0 83 11Z"/><path fill="#88ae45" d="M87 22A2 2 0 1 0 87 26A2 2 0 1 0 87 22Z"/><path fill="#fbcd59" d="M81 74A2 2 0 1 0 81 78 2 2 0 1 0 81 74zM15 59A4 4 0 1 0 15 67 4 4 0 1 0 15 59z"/><path fill="#88ae45" d="M25 85A2 2 0 1 0 25 89A2 2 0 1 0 25 85Z"/><path fill="#fff" d="M18.5 49A2.5 2.5 0 1 0 18.5 54 2.5 2.5 0 1 0 18.5 49zM79.5 32A1.5 1.5 0 1 0 79.5 35 1.5 1.5 0 1 0 79.5 32z"/><path fill="#bd977c" d="M74.25,38.761v1.637v26.782c0,2.787-2.231,5.068-4.958,5.068H40.685 c-2.727,0-4.958-2.281-4.958-5.068V40.347v-1.586"/><path fill="#472b29" d="M69.292,72.947H40.685c-3.119,0-5.657-2.588-5.657-5.768V38.761h1.4V67.18 c0,2.408,1.909,4.367,4.257,4.367h28.607c2.348,0,4.258-1.959,4.258-4.367V38.761h1.4V67.18 C74.95,70.359,72.412,72.947,69.292,72.947z"/><path fill="#ee3e54" d="M63.768 48.199L63.768 54.617 66.034 52.73 68.3 54.617 68.3 48.199z"/><path fill="#472b29" d="M69,55.63l-2.97-2.273L63,55.613V48h6V55.63z M64,49v4.621l2.038-1.519L68,53.604V49H64z"/><path fill="#f6cca4" d="M38.3,48.3c-1.985,0-3.6-1.847-3.6-4.116V34.7h41.6v9.483c0,2.27-1.614,4.116-3.6,4.116H38.3z"/><path fill="#472b29" d="M75.6,35.4v8.783c0,1.884-1.301,3.417-2.9,3.417H38.3c-1.599,0-2.9-1.533-2.9-3.417V35.4H75.6 M76.748,34H34.412C34.185,34,34,34.208,34,34.461v9.722C34,46.833,35.935,49,38.3,49h34.4c2.365,0,4.3-2.167,4.3-4.817v-9.902 C77,34.126,76.887,34,76.748,34L76.748,34z"/><path fill="#472b29" d="M66.035,52.875c-0.133,0-0.242-0.109-0.242-0.242v-3.999c0-0.133,0.109-0.242,0.242-0.242 c0.133,0,0.242,0.109,0.242,0.242v3.999C66.277,52.766,66.168,52.875,66.035,52.875z"/><path fill="#472b29" d="M68.008 53.043c-.03 0-.061-.011-.086-.031l-1.831-1.534c-.057-.047-.065-.132-.017-.189.046-.058.132-.063.189-.017l1.831 1.534c.057.047.065.132.017.189C68.085 53.025 68.047 53.043 68.008 53.043zM68.008 51.667c-.03 0-.061-.011-.086-.031l-1.831-1.534c-.057-.047-.065-.132-.017-.189.046-.057.132-.063.189-.017l1.831 1.534c.057.047.065.132.017.189C68.085 51.651 68.047 51.667 68.008 51.667zM67.188 69H42.813C40.71 69 39 67.29 39 65.188V47.5c0-.276.224-.5.5-.5s.5.224.5.5v17.688C40 66.738 41.262 68 42.813 68h24.375C68.738 68 70 66.738 70 65.188V56.5c0-.276.224-.5.5-.5s.5.224.5.5v8.688C71 67.29 69.29 69 67.188 69zM68.241 50.598c-.03 0-.061-.011-.086-.031l-1.831-1.534c-.057-.047-.065-.132-.017-.189.047-.057.132-.065.189-.017l1.831 1.534c.057.047.065.132.017.189C68.318 50.581 68.279 50.598 68.241 50.598z"/><path fill="#fdfcef" d="M50.917,38.027c0.003,3.395-2.093,6.607-5.696,8.728l0,0c0,1.833,0.534,3.863,1.202,5.156 c0.237,0.458-0.134,0.992-0.647,0.937c-3.325-0.366-6.475-2.008-8.15-3.648h-1.899c-8.389,0-15.189-5.002-15.189-11.172 s6.8-11.172,15.189-11.172S50.917,31.857,50.917,38.027"/><path fill="#472b29" d="M45.848,53.389c-0.044,0-0.087-0.002-0.13-0.006c-3.46-0.381-6.622-2.079-8.308-3.646h-1.683 C27.055,49.736,20,44.483,20,38.026s7.055-11.71,15.727-11.71s15.727,5.253,15.727,11.71l0,0c0.002,3.523-2.067,6.799-5.691,9.029 c0.057,1.77,0.6,3.567,1.138,4.609c0.2,0.388,0.171,0.852-0.075,1.211C46.603,53.2,46.236,53.389,45.848,53.389z M35.727,27.393 c-8.079,0-14.652,4.771-14.652,10.635s6.573,10.635,14.652,10.635h1.899c0.141,0,0.275,0.055,0.376,0.154 c1.508,1.479,4.515,3.134,7.832,3.498c0.059,0.005,0.087-0.023,0.104-0.046c0.024-0.034,0.026-0.071,0.006-0.109 c-0.767-1.484-1.262-3.605-1.262-5.403c0-0.19,0.101-0.367,0.265-0.463c3.454-2.034,5.434-5.046,5.431-8.265l0,0 C50.379,32.164,43.806,27.393,35.727,27.393z M51.454,38.027h0.011H51.454z"/><path fill="#f4989e" d="M27.338 40.072A5.794 5.794 0 1 0 27.338 51.66A5.794 5.794 0 1 0 27.338 40.072Z"/><path fill="#472b29" d="M27.338,52.199c-3.491,0-6.332-2.841-6.332-6.332c0-3.491,2.841-6.331,6.332-6.331 s6.331,2.841,6.331,6.331C33.669,49.358,30.828,52.199,27.338,52.199z M27.338,40.61c-2.899,0-5.257,2.358-5.257,5.256 c0,2.899,2.358,5.257,5.257,5.257c2.898,0,5.256-2.358,5.256-5.257C32.594,42.968,30.236,40.61,27.338,40.61z"/><g><path fill="#ee3e54" d="M27.338,44.887c1.165-1.663,2.794-0.906,2.794,0.687c0,1.46-1.947,2.704-2.794,3.175 c-0.846-0.471-2.794-1.715-2.794-3.175C24.544,43.98,26.172,43.223,27.338,44.887z"/></g><g><path fill="#472b29" d="M27.338,49.151c-0.068,0-0.135-0.017-0.197-0.051c-1.12-0.625-3-1.914-3-3.528 c0-0.946,0.492-1.712,1.253-1.952c0.661-0.208,1.363,0.025,1.944,0.63c0.58-0.604,1.281-0.838,1.943-0.63 c0.761,0.24,1.253,1.006,1.253,1.953c0,1.614-1.88,2.903-3,3.528C27.473,49.135,27.405,49.151,27.338,49.151z M25.87,44.353 c-0.08,0-0.157,0.012-0.233,0.035c-0.418,0.132-0.689,0.597-0.689,1.184c0,1.166,1.637,2.267,2.39,2.711 c0.753-0.444,2.389-1.545,2.389-2.711c0-0.587-0.27-1.052-0.689-1.184c-0.444-0.138-0.954,0.133-1.37,0.728 c-0.152,0.216-0.51,0.216-0.66,0C26.662,44.624,26.252,44.353,25.87,44.353z"/></g><g><path fill="#472b29" d="M54.499,68.75c-0.276,0-0.5-0.224-0.5-0.5V57.438c0-0.276,0.224-0.5,0.5-0.5s0.5,0.224,0.5,0.5 V68.25C54.999,68.526,54.775,68.75,54.499,68.75z"/></g><g><path fill="#472b29" d="M54.501,51.5c-0.276,0-0.5-0.224-0.5-0.5v-2.75c0-0.276,0.224-0.5,0.5-0.5s0.5,0.224,0.5,0.5V51 C55.001,51.276,54.777,51.5,54.501,51.5z"/></g><g><path fill="#472b29" d="M70.688,54c-0.276,0-0.5-0.224-0.5-0.5v-2.75c0-0.276,0.224-0.5,0.5-0.5s0.5,0.224,0.5,0.5v2.75 C71.188,53.776,70.964,54,70.688,54z"/></g><g><path fill="#fdfcee" d="M59.022,57.625h-9.793c-0.95,0-1.728-0.913-1.728-2.031l0,0c0-1.117,0.777-2.031,1.728-2.031h9.793 c0.95,0,1.728,0.913,1.728,2.031l0,0C60.75,56.71,59.972,57.625,59.022,57.625z"/></g><g><path fill="#472b29" d="M58.832,58H49.5c-1.379,0-2.5-1.121-2.5-2.5s1.121-2.5,2.5-2.5h9.332c1.379,0,2.5,1.121,2.5,2.5 S60.211,58,58.832,58z M49.5,54c-0.827,0-1.5,0.673-1.5,1.5s0.673,1.5,1.5,1.5h9.332c0.827,0,1.5-0.673,1.5-1.5s-0.673-1.5-1.5-1.5 H49.5z"/></g><g><path fill="#472b29" d="M43.5,33.75h-16c-0.138,0-0.25-0.112-0.25-0.25s0.112-0.25,0.25-0.25h16 c0.138,0,0.25,0.112,0.25,0.25S43.638,33.75,43.5,33.75z"/></g><g><path fill="#472b29" d="M32.5,36.75h-7c-0.138,0-0.25-0.112-0.25-0.25s0.112-0.25,0.25-0.25h7c0.138,0,0.25,0.112,0.25,0.25 S32.638,36.75,32.5,36.75z"/></g><g><path fill="#472b29" d="M45.5,36.75h-10c-0.138,0-0.25-0.112-0.25-0.25s0.112-0.25,0.25-0.25h10 c0.138,0,0.25,0.112,0.25,0.25S45.638,36.75,45.5,36.75z"/></g><g><path fill="#472b29" d="M44.5,39.75h-10c-0.138,0-0.25-0.112-0.25-0.25s0.112-0.25,0.25-0.25h10 c0.138,0,0.25,0.112,0.25,0.25S44.638,39.75,44.5,39.75z"/></g><g><path fill="#472b29" d="M42.5,42.75h-7c-0.138,0-0.25-0.112-0.25-0.25s0.112-0.25,0.25-0.25h7c0.138,0,0.25,0.112,0.25,0.25 S42.638,42.75,42.5,42.75z"/></g></svg>