<svg xmlns="http://www.w3.org/2000/svg"  viewBox="0 0 100 100" width="100px" height="100px"><path fill="#ee3e54" d="M13 27A2 2 0 1 0 13 31A2 2 0 1 0 13 27Z"/><path fill="#f1bc19" d="M77 12A1 1 0 1 0 77 14A1 1 0 1 0 77 12Z"/><path fill="#fce0a2" d="M50 13A37 37 0 1 0 50 87A37 37 0 1 0 50 13Z"/><path fill="#f1bc19" d="M83 11A4 4 0 1 0 83 19A4 4 0 1 0 83 11Z"/><path fill="#ee3e54" d="M87 22A2 2 0 1 0 87 26A2 2 0 1 0 87 22Z"/><path fill="#fbcd59" d="M81 74A2 2 0 1 0 81 78 2 2 0 1 0 81 74zM15 59A4 4 0 1 0 15 67 4 4 0 1 0 15 59z"/><path fill="#ee3e54" d="M25 85A2 2 0 1 0 25 89A2 2 0 1 0 25 85Z"/><path fill="#fff" d="M18.5 51A2.5 2.5 0 1 0 18.5 56A2.5 2.5 0 1 0 18.5 51Z"/><path fill="#f1bc19" d="M21 66A1 1 0 1 0 21 68A1 1 0 1 0 21 66Z"/><path fill="#fff" d="M80 33A1 1 0 1 0 80 35A1 1 0 1 0 80 33Z"/><g><path fill="#8f9eb6" d="M71.487,34.145L71.487,34.145l-7.028,7.027c-0.942,0.942-2.467,0.942-3.409,0l-3.214-3.214 c-0.942-0.942-0.942-2.467,0-3.409l7.029-7.029v-0.001c-1.662-0.668-3.51-0.972-5.445-0.813 c-5.654,0.464-10.268,5.013-10.842,10.657c-0.204,2.011,0.109,3.923,0.8,5.643L30.052,62.333c-1.829,1.829-1.829,4.794,0,6.622 c1.829,1.829,4.794,1.829,6.622,0l19.331-19.329c1.72,0.689,3.632,1.002,5.643,0.795c5.639-0.578,10.183-5.189,10.648-10.839 C72.455,37.651,72.153,35.805,71.487,34.145z"/><path fill="#472b29" d="M33.363,71.027c-1.438,0-2.79-0.561-3.806-1.577s-1.577-2.368-1.577-3.806s0.56-2.79,1.577-3.807 l19.007-19.006c-0.645-1.785-0.874-3.646-0.681-5.539c0.604-5.946,5.54-10.797,11.481-11.284c1.995-0.169,3.934,0.127,5.763,0.861 c0.218,0.088,0.377,0.279,0.425,0.509c0.047,0.23-0.025,0.47-0.191,0.636l-7.029,7.03c-0.323,0.323-0.501,0.752-0.501,1.209 s0.178,0.886,0.501,1.209l3.214,3.214c0.646,0.647,1.774,0.646,2.418,0l7.027-7.026c0.167-0.166,0.408-0.237,0.636-0.19 c0.23,0.047,0.422,0.207,0.51,0.425c0.732,1.828,1.021,3.764,0.857,5.755c-0.488,5.936-5.335,10.87-11.274,11.478 c-1.893,0.192-3.753-0.034-5.54-0.676L37.169,69.45C36.152,70.467,34.801,71.027,33.363,71.027z M60.435,27.364 c-0.317,0-0.636,0.014-0.957,0.039c-5.279,0.434-9.665,4.746-10.203,10.03c-0.185,1.82,0.069,3.607,0.753,5.313 c0.104,0.26,0.044,0.558-0.154,0.756L30.547,62.828c-0.752,0.752-1.167,1.753-1.167,2.816s0.415,2.063,1.167,2.815 c1.505,1.507,4.128,1.505,5.633,0L55.51,49.131c0.198-0.198,0.495-0.26,0.755-0.154c1.707,0.684,3.495,0.938,5.311,0.748 c5.28-0.54,9.588-4.926,10.022-10.2c0.116-1.404-0.021-2.776-0.406-4.094l-6.238,6.236c-1.213,1.213-3.187,1.213-4.399,0 l-3.214-3.214c-0.587-0.588-0.911-1.368-0.911-2.199s0.324-1.611,0.911-2.199l6.241-6.24 C62.563,27.515,61.511,27.364,60.435,27.364z"/></g><g><path fill="#fefdef" d="M33.3 64.048A1.654 1.654 0 1 0 33.3 67.356A1.654 1.654 0 1 0 33.3 64.048Z"/></g><g><path fill="#472b29" d="M61.413 48.446c-.167 0-.311-.126-.328-.297-.019-.181.114-.345.295-.363 2.006-.206 3.937-1.11 5.435-2.545.132-.126.341-.121.468.011.126.132.122.341-.011.468-1.605 1.536-3.673 2.504-5.826 2.724C61.436 48.446 61.425 48.446 61.413 48.446zM68.171 44.529c-.069 0-.137-.021-.196-.064-.148-.109-.179-.316-.071-.462.299-.408.565-.838.791-1.278.084-.163.285-.227.445-.144.163.083.228.283.144.445-.242.472-.527.932-.846 1.368C68.373 44.483 68.272 44.529 68.171 44.529zM69.546 41.883c-.035 0-.07-.006-.105-.017-.173-.058-.266-.245-.208-.419.069-.209.132-.422.186-.637.044-.177.224-.285.402-.24.177.044.285.225.24.402-.059.232-.125.461-.202.686C69.813 41.795 69.684 41.883 69.546 41.883zM50.173 45.819c-.085 0-.169-.032-.234-.097-.129-.129-.129-.339 0-.468l.662-.662c.129-.129.339-.129.468 0s.129.339 0 .468l-.662.662C50.342 45.786 50.257 45.819 50.173 45.819zM48.188 47.803c-.085 0-.169-.032-.234-.097-.129-.129-.129-.339 0-.468l.992-.992c.129-.129.339-.129.468 0 .129.129.129.339 0 .468l-.992.992C48.357 47.771 48.272 47.803 48.188 47.803zM36.939 59.047c-.085 0-.169-.032-.234-.097-.129-.129-.129-.339 0-.468L46.961 48.23c.129-.129.339-.129.468 0 .129.129.129.339 0 .468L37.173 58.951C37.109 59.015 37.024 59.047 36.939 59.047z"/></g><g><path fill="#472b29" d="M33.3,67.687c-1.094,0-1.985-0.891-1.985-1.985c0-1.094,0.891-1.985,1.985-1.985 c1.094,0,1.985,0.891,1.985,1.985C35.285,66.796,34.395,67.687,33.3,67.687z M33.3,64.379c-0.73,0-1.323,0.593-1.323,1.323 c0,0.73,0.594,1.323,1.323,1.323s1.323-0.593,1.323-1.323C34.624,64.972,34.03,64.379,33.3,64.379z"/></g></svg>